<svg xmlns="http://www.w3.org/2000/svg" xmlns:xlink="http://www.w3.org/1999/xlink" viewBox="0,0,256,256" width="50px" height="50px" fill-rule="nonzero"><g fill="#ffffff" fill-rule="nonzero" stroke="none" stroke-width="1" stroke-linecap="butt" stroke-linejoin="miter" stroke-miterlimit="10" stroke-dasharray="" stroke-dashoffset="0" font-family="none" font-weight="none" font-size="none" text-anchor="none" style="mix-blend-mode: normal"><g transform="scale(5.12,5.12)"><path d="M25,2c-12.69047,0 -23,10.30953 -23,23c0,4.0791 1.11869,7.88588 2.98438,11.20898l-2.94727,10.52148c-0.09582,0.34262 -0.00241,0.71035 0.24531,0.96571c0.24772,0.25536 0.61244,0.35989 0.95781,0.27452l10.9707,-2.71875c3.22369,1.72098 6.88165,2.74805 10.78906,2.74805c12.69047,0 23,-10.30953 23,-23c0,-12.69047 -10.30953,-23 -23,-23zM25,4c11.60953,0 21,9.39047 21,21c0,11.60953 -9.39047,21 -21,21c-3.72198,0 -7.20788,-0.97037 -10.23828,-2.66602c-0.22164,-0.12385 -0.48208,-0.15876 -0.72852,-0.09766l-9.60742,2.38086l2.57617,-9.19141c0.07449,-0.26248 0.03851,-0.54399 -0.09961,-0.7793c-1.84166,-3.12289 -2.90234,-6.75638 -2.90234,-10.64648c0,-11.60953 9.39047,-21 21,-21zM16.64258,13c-0.64104,0 -1.55653,0.23849 -2.30859,1.04883c-0.45172,0.48672 -2.33398,2.32068 -2.33398,5.54492c0,3.36152 2.33139,6.2621 2.61328,6.63477h0.00195v0.00195c-0.02674,-0.03514 0.3578,0.52172 0.87109,1.18945c0.5133,0.66773 1.23108,1.54472 2.13281,2.49414c1.80347,1.89885 4.33914,4.09336 7.48633,5.43555c1.44932,0.61717 2.59271,0.98981 3.45898,1.26172c1.60539,0.5041 3.06762,0.42747 4.16602,0.26563c0.82216,-0.12108 1.72641,-0.51584 2.62109,-1.08203c0.89469,-0.56619 1.77153,-1.2702 2.1582,-2.33984c0.27701,-0.76683 0.41783,-1.47548 0.46875,-2.05859c0.02546,-0.29156 0.02869,-0.54888 0.00977,-0.78711c-0.01897,-0.23823 0.0013,-0.42071 -0.2207,-0.78516c-0.46557,-0.76441 -0.99283,-0.78437 -1.54297,-1.05664c-0.30567,-0.15128 -1.17595,-0.57625 -2.04883,-0.99219c-0.8719,-0.41547 -1.62686,-0.78344 -2.0918,-0.94922c-0.29375,-0.10568 -0.65243,-0.25782 -1.16992,-0.19922c-0.51749,0.0586 -1.0286,0.43198 -1.32617,0.87305c-0.28205,0.41807 -1.4175,1.75835 -1.76367,2.15234c-0.0046,-0.0028 0.02544,0.01104 -0.11133,-0.05664c-0.42813,-0.21189 -0.95173,-0.39205 -1.72656,-0.80078c-0.77483,-0.40873 -1.74407,-1.01229 -2.80469,-1.94727v-0.00195c-1.57861,-1.38975 -2.68437,-3.1346 -3.0332,-3.7207c0.0235,-0.02796 -0.00279,0.0059 0.04687,-0.04297l0.00195,-0.00195c0.35652,-0.35115 0.67247,-0.77056 0.93945,-1.07812c0.37854,-0.43609 0.54559,-0.82052 0.72656,-1.17969c0.36067,-0.71583 0.15985,-1.50352 -0.04883,-1.91797v-0.00195c0.01441,0.02867 -0.11288,-0.25219 -0.25,-0.57617c-0.13751,-0.32491 -0.31279,-0.74613 -0.5,-1.19531c-0.37442,-0.89836 -0.79243,-1.90595 -1.04102,-2.49609v-0.00195c-0.29285,-0.69513 -0.68904,-1.1959 -1.20703,-1.4375c-0.51799,-0.2416 -0.97563,-0.17291 -0.99414,-0.17383h-0.00195c-0.36964,-0.01705 -0.77527,-0.02148 -1.17773,-0.02148zM16.64258,15c0.38554,0 0.76564,0.0047 1.08398,0.01953c0.32749,0.01632 0.30712,0.01766 0.24414,-0.01172c-0.06399,-0.02984 0.02283,-0.03953 0.20898,0.40234c0.24341"></path></g></g></svg>